<?xml version="1.0" encoding="UTF-8"?>
<svg id="Layer_2" data-name="Layer 2" xmlns="http://www.w3.org/2000/svg" viewBox="0 0 167 124">
  <defs>
    <style>
      .cls-1 {
        fill: #f55;
      }

      .cls-2 {
        fill: none;
        stroke: #f55;
        stroke-linecap: round;
        stroke-linejoin: round;
        stroke-width: 5px;
      }
    </style>
  </defs>
  <g id="Layer_1-2" data-name="Layer 1">
    <path class="cls-1" d="m152.9,9c2.81,0,5.1,2.29,5.1,5.1v95.81c0,2.81-2.29,5.1-5.1,5.1H14.1c-2.81,0-5.1-2.29-5.1-5.1V14.1c0-2.81,2.29-5.1,5.1-5.1h138.81m0-9H14.1C6.31,0,0,6.31,0,14.1v95.81c0,7.79,6.31,14.1,14.1,14.1h138.81c7.79,0,14.1-6.31,14.1-14.1V14.1c0-7.79-6.31-14.1-14.1-14.1h0Z"/>
    <path class="cls-2" d="m37.5,22.42c7.67,0,7.67,9.2,15.33,9.2s7.66-9.2,15.33-9.2,7.67,9.2,15.33,9.2,7.67-9.2,15.33-9.2,7.67,9.2,15.34,9.2,7.67-9.2,15.34-9.2"/>
    <path class="cls-2" d="m37.5,57.66c7.67,0,7.67,9.2,15.33,9.2s7.66-9.2,15.33-9.2,7.67,9.2,15.33,9.2,7.67-9.2,15.33-9.2,7.67,9.2,15.34,9.2,7.67-9.2,15.34-9.2"/>
    <path class="cls-2" d="m37.5,92.9c7.67,0,7.67,9.2,15.33,9.2s7.66-9.2,15.33-9.2,7.67,9.2,15.33,9.2,7.67-9.2,15.33-9.2,7.67,9.2,15.34,9.2,7.67-9.2,15.34-9.2"/>
  </g>
</svg>