<?xml version="1.0" encoding="UTF-8"?>
<svg id="Layer_2" data-name="Layer 2" xmlns="http://www.w3.org/2000/svg" viewBox="0 0 325.29 326">
  <defs>
    <style>
      .cls-1 {
        fill: #fff;
      }

      .cls-2 {
        fill: #8d8b93;
      }

      .cls-3 {
        fill: #439de4;
      }

      .cls-4 {
        fill: #f2dc11;
      }

      .cls-5 {
        fill: red;
      }
    </style>
  </defs>
  <g id="Layer_1-2" data-name="Layer 1">
    <g>
      <path class="cls-1" d="m256.84,290.5c-.76,6.34-6.17,11.26-12.7,11.26h-27.47l-82.58-82.58,25.72-25.72,97.04,97.04Z"/>
      <path class="cls-4" d="m197.82,155.45l-38.02,38.02-108.3,108.3h-14.48c-7.05,0-12.79-5.73-12.79-12.79v-12.03l126.73-126.73c4.19,3.45,9.54,5.5,15.35,5.5h27.93c1.2,0,2.4-.08,3.56-.27Z"/>
      <path d="m281.16,129.99v158.99c0,20.41-16.62,37.02-37.02,37.02H37.02c-3.1,0-6.12-.39-9-1.1-12.56-3.16-22.59-12.74-26.38-25.03-1.07-3.44-1.64-7.1-1.64-10.89V81.86c0-20.41,16.62-37.02,37.02-37.02h102.26l.78,24.24H37.02c-7.05,0-12.79,5.73-12.79,12.79v207.11c0,7.05,5.73,12.79,12.79,12.79h207.11c6.53,0,11.94-4.92,12.7-11.26.05-.5.08-1.01.08-1.53v-133.43c8.45-1.02,15.84-6.41,19.32-14.34l4.92-11.22Z"/>
      <path class="cls-1" d="m142.09,132.27l-2.04-63.19H37.02c-7.05,0-12.79,5.73-12.79,12.79v195.08l126.73-126.73c-5.22-4.27-8.64-10.69-8.87-17.95Zm-63.93,32.55c-23.09,0-41.81-18.72-41.81-41.81s18.72-41.81,41.81-41.81,41.81,18.72,41.81,41.81-18.72,41.81-41.81,41.81Z"/>
      <polygon class="cls-3" points="216.66 301.76 51.51 301.76 134.08 219.18 216.66 301.76"/>
      <path class="cls-2" d="m256.92,155.55v133.43c0,.52-.04,1.03-.08,1.53l-97.04-97.04,38.02-38.02c4.33-.64,8.35-2.44,11.68-5.13,4.17,3.38,9.48,5.39,15.25,5.39h29.29c.97,0,1.94-.06,2.88-.17Z"/>
      <path class="cls-1" d="m321.35,10.98c-4.48-6.85-12.11-10.98-20.3-10.98h-25.38c-6.19,0-12,2.35-16.37,6.36-4.31-3.95-10.07-6.36-16.37-6.36h-22.08c-6.5,0-12.59,2.61-17.05,7-4.53-4.48-10.65-7-17.04-7h-23.89c-6.56,0-12.85,2.67-17.41,7.38-4.56,4.71-7.02,11.08-6.81,17.63l.64,19.83.78,24.24,2.04,63.19c.23,7.26,3.65,13.68,8.87,17.95,4.19,3.45,9.54,5.5,15.35,5.5h27.93c1.2,0,2.4-.08,3.56-.27,4.33-.64,8.35-2.44,11.68-5.13,4.17,3.38,9.48,5.39,15.25,5.39h29.29c.97,0,1.94-.06,2.88-.17,8.45-1.02,15.84-6.41,19.32-14.34l4.92-11.22,42.09-96.02c3.28-7.49,2.57-16.14-1.9-22.99Zm-41.41,61.42l-23.01,52.5-2.88,6.58h-29.29l-.05-2.91-.7-42.3v-13.67c0-1.18.01-2.35.05-3.53.06-2.65.21-5.33.41-8.03h-.61c-.91,2.73-1.84,5.41-2.8,8.03-2,5.51-4.12,10.85-6.36,16l-1.11,2.53-19.32,43.87h-27.93l-2.01-62.4-.78-24.24-.67-20.6h23.89l-.06,20.6-.06,24.24-.04,11.49c0,4-.1,8.34-.29,12.99-.21,4.65-.51,8.79-.91,12.39h.61c1.2-3.6,2.63-7.53,4.28-11.79,1.65-4.25,3.22-8.08,4.73-11.49l6.01-13.59,10.71-24.24,9.11-20.6h22.08l.27,20.6.3,24.24.08,6.65.1,7.68c.1,1.71.12,3.88.07,6.53s-.12,5.44-.22,8.34c-.11,2.91-.25,5.61-.46,8.11h.61c1.2-4,2.73-8.56,4.58-13.66,1.19-3.27,2.29-6.27,3.33-8.99.59-1.55,1.15-3.01,1.7-4.37l1.72-4.23,9.74-24.01,10.92-26.89h25.38l-21.11,48.16Z"/>
      <path d="m301.05,24.24l-21.11,48.16-23.01,52.5-2.88,6.58h-29.29l-.05-2.91-.7-42.3v-13.67c0-1.18.01-2.35.05-3.53.06-2.65.21-5.33.41-8.03h-.61c-.91,2.73-1.84,5.41-2.8,8.03-2,5.51-4.12,10.85-6.36,16l-1.11,2.53-19.32,43.87h-27.93l-2.01-62.4-.78-24.24-.67-20.6h23.89l-.06,20.6-.06,24.24-.04,11.49c0,4-.1,8.34-.29,12.99-.21,4.65-.51,8.79-.91,12.39h.61c1.2-3.6,2.63-7.53,4.28-11.79,1.65-4.25,3.22-8.08,4.73-11.49l6.01-13.59,10.71-24.24,9.11-20.6h22.08l.27,20.6.3,24.24.08,6.65.1,7.68c.1,1.71.12,3.88.07,6.53s-.12,5.44-.22,8.34c-.11,2.91-.25,5.61-.46,8.11h.61c1.2-4,2.73-8.56,4.58-13.66,1.19-3.27,2.29-6.27,3.33-8.99.59-1.55,1.15-3.01,1.7-4.37l1.72-4.23,9.74-24.01,10.92-26.89h25.38Z"/>
      <circle class="cls-5" cx="78.17" cy="123.01" r="41.81"/>
    </g>
  </g>
</svg>