<?xml version="1.0" encoding="UTF-8"?>
<svg id="Layer_2" data-name="Layer 2" xmlns="http://www.w3.org/2000/svg" viewBox="0 0 3274.56 420.36">
  <defs>
    <style>
      .cls-1 {
        fill: #fff;
      }

      .cls-2 {
        fill: #8d8b93;
      }

      .cls-3 {
        fill: #439de4;
      }

      .cls-4 {
        fill: #f2dc11;
      }

      .cls-5 {
        fill: red;
      }
    </style>
  </defs>
  <g id="Layer_1-2" data-name="Layer 1">
    <g>
      <path class="cls-1" d="m2087.41,290.5c-.76,6.34-6.17,11.26-12.7,11.26h-27.47l-82.58-82.58,25.72-25.72,97.04,97.04Z"/>
      <path class="cls-4" d="m2028.39,155.45l-38.02,38.02-108.3,108.3h-14.48c-7.05,0-12.79-5.73-12.79-12.79v-12.03l126.73-126.73c4.19,3.45,9.54,5.5,15.35,5.5h27.93c1.2,0,2.4-.08,3.56-.27Z"/>
      <path d="m2111.73,129.99v158.99c0,20.41-16.62,37.02-37.02,37.02h-207.11c-3.1,0-6.12-.39-9-1.1-12.56-3.16-22.59-12.74-26.38-25.03-1.07-3.44-1.64-7.1-1.64-10.89V81.86c0-20.41,16.62-37.02,37.02-37.02h102.26l.78,24.24h-103.04c-7.05,0-12.79,5.73-12.79,12.79v207.11c0,7.05,5.73,12.79,12.79,12.79h207.11c6.53,0,11.94-4.92,12.7-11.26.05-.5.08-1.01.08-1.53v-133.43c8.45-1.02,15.84-6.41,19.32-14.34l4.92-11.22Z"/>
      <path class="cls-1" d="m1972.67,132.27l-2.04-63.19h-103.04c-7.05,0-12.79,5.73-12.79,12.79v195.08l126.73-126.73c-5.22-4.27-8.64-10.69-8.87-17.95Zm-63.93,32.55c-23.09,0-41.81-18.72-41.81-41.81s18.72-41.81,41.81-41.81,41.81,18.72,41.81,41.81-18.72,41.81-41.81,41.81Z"/>
      <polygon class="cls-3" points="2047.24 301.76 1882.08 301.76 1964.66 219.18 2047.24 301.76"/>
      <path class="cls-2" d="m2087.49,155.55v133.43c0,.52-.04,1.03-.08,1.53l-97.04-97.04,38.02-38.02c4.33-.64,8.35-2.44,11.68-5.13,4.17,3.38,9.48,5.39,15.25,5.39h29.29c.97,0,1.94-.06,2.88-.17Z"/>
      <path class="cls-1" d="m2151.92,10.98c-4.48-6.85-12.11-10.98-20.3-10.98h-25.38c-6.19,0-12,2.35-16.37,6.36-4.31-3.95-10.07-6.36-16.37-6.36h-22.08c-6.5,0-12.59,2.61-17.05,7-4.53-4.48-10.65-7-17.04-7h-23.89c-6.56,0-12.85,2.67-17.41,7.38-4.56,4.71-7.02,11.08-6.81,17.63l.64,19.83.78,24.24,2.04,63.19c.23,7.26,3.65,13.68,8.87,17.95,4.19,3.45,9.54,5.5,15.35,5.5h27.93c1.2,0,2.4-.08,3.56-.27,4.33-.64,8.35-2.44,11.68-5.13,4.17,3.38,9.48,5.39,15.25,5.39h29.29c.97,0,1.94-.06,2.88-.17,8.45-1.02,15.84-6.41,19.32-14.34l4.92-11.22,42.09-96.02c3.28-7.49,2.57-16.14-1.9-22.99Zm-41.41,61.42l-23.01,52.5-2.88,6.58h-29.29l-.05-2.91-.7-42.3v-13.67c0-1.18.01-2.35.05-3.53.06-2.65.21-5.33.41-8.03h-.61c-.91,2.73-1.84,5.41-2.8,8.03-2,5.51-4.12,10.85-6.36,16l-1.11,2.53-19.32,43.87h-27.93l-2.01-62.4-.78-24.24-.67-20.6h23.89l-.06,20.6-.06,24.24-.04,11.49c0,4-.1,8.34-.29,12.99-.21,4.65-.51,8.79-.91,12.39h.61c1.2-3.6,2.63-7.53,4.28-11.79,1.65-4.25,3.22-8.08,4.73-11.49l6.01-13.59,10.71-24.24,9.11-20.6h22.08l.27,20.6.3,24.24.08,6.65.1,7.68c.1,1.71.12,3.88.07,6.53s-.12,5.44-.22,8.34c-.11,2.91-.25,5.61-.46,8.11h.61c1.2-4,2.73-8.56,4.58-13.66,1.19-3.27,2.29-6.27,3.33-8.99.59-1.55,1.15-3.01,1.7-4.37l1.72-4.23,9.74-24.01,10.92-26.89h25.38l-21.11,48.16Z"/>
      <path d="m2131.62,24.24l-21.11,48.16-23.01,52.5-2.88,6.58h-29.29l-.05-2.91-.7-42.3v-13.67c0-1.18.01-2.35.05-3.53.06-2.65.21-5.33.41-8.03h-.61c-.91,2.73-1.84,5.41-2.8,8.03-2,5.51-4.12,10.85-6.36,16l-1.11,2.53-19.32,43.87h-27.93l-2.01-62.4-.78-24.24-.67-20.6h23.89l-.06,20.6-.06,24.24-.04,11.49c0,4-.1,8.34-.29,12.99-.21,4.65-.51,8.79-.91,12.39h.61c1.2-3.6,2.63-7.53,4.28-11.79,1.65-4.25,3.22-8.08,4.73-11.49l6.01-13.59,10.71-24.24,9.11-20.6h22.08l.27,20.6.3,24.24.08,6.65.1,7.68c.1,1.71.12,3.88.07,6.53s-.12,5.44-.22,8.34c-.11,2.91-.25,5.61-.46,8.11h.61c1.2-4,2.73-8.56,4.58-13.66,1.19-3.27,2.29-6.27,3.33-8.99.59-1.55,1.15-3.01,1.7-4.37l1.72-4.23,9.74-24.01,10.92-26.89h25.38Z"/>
      <circle class="cls-5" cx="1908.74" cy="123.01" r="41.81"/>
    </g>
    <g>
      <path d="m9.02,326.21L0,46.1h62.38l-.39,147.12c0,10.46-.26,21.77-.78,33.93-.53,12.16-1.31,22.95-2.35,32.37h1.57c3.14-9.42,6.87-19.68,11.18-30.8,4.32-11.11,8.43-21.12,12.36-30.01L151.43,46.1h57.67l1.96,154.57c.26,4.45.32,10.14.2,17.07-.14,6.93-.33,14.19-.59,21.77-.26,7.59-.66,14.65-1.18,21.18h1.57c3.14-10.46,7.12-22.36,11.97-35.7,4.84-13.34,9.22-24.97,13.14-34.92l58.45-143.98h66.3l-122.79,280.11h-76.5l-1.96-118.08v-35.7c0-9.94.39-20.01,1.18-30.21h-1.57c-7.33,21.97-15.3,42.9-23.93,62.77l-53.35,121.22H9.02Z"/>
      <path d="m395.45,330.13c-10.73,0-20.73-2.62-30.01-7.85-9.29-5.23-16.74-13.66-22.36-25.3-5.63-11.63-8.43-27.27-8.43-46.88,0-15.43,2.09-31.51,6.28-48.25,4.18-16.73,10.46-32.3,18.83-46.69,8.37-14.38,18.63-26.02,30.8-34.92,12.16-8.89,26.09-13.34,41.78-13.34,13.07,0,23.73,2.81,31.97,8.44,8.24,5.63,14.84,13.14,19.81,22.56h1.57l10.59-27.07h51.39l-45.9,215.38h-50.61l2.35-25.89h-1.57c-6.54,8.89-14.32,16.08-23.34,21.58s-20.08,8.24-33.15,8.24Zm26.28-52.57c6.8,0,13.14-2.88,19.03-8.63,5.88-5.75,10.92-13.2,15.1-22.36,4.18-9.15,7.19-18.83,9.02-29.03.78-4.71,1.37-9.35,1.77-13.93.39-4.57.59-9.48.59-14.71,0-8.63-1.9-15.69-5.69-21.18-3.79-5.49-9.09-8.24-15.89-8.24-6.02,0-11.77,2.55-17.26,7.65s-10.27,11.9-14.32,20.4c-4.06,8.5-7.26,17.85-9.61,28.05s-3.53,20.54-3.53,30.99c0,20.66,6.93,30.99,20.79,30.99Z"/>
      <path d="m555.9,420.36c-7.06,0-12.88-.33-17.46-.98-4.57-.66-8.3-1.51-11.18-2.55v-51.78c2.88.52,6.08,1.04,9.61,1.57,3.53.52,7.52.78,11.97.78,11.77,0,21.38-3.01,28.83-9.02,7.45-6.02,14.06-14.26,19.81-24.71l4.71-8.63-31.38-214.2h65.12l9.02,99.25c.78,7.85,1.24,15.96,1.37,24.32.13,8.37.2,15.96.2,22.75h1.57c2.09-6.28,4.57-13.4,7.45-21.38,2.88-7.98,6.14-15.89,9.81-23.74l46.68-101.21h70.22l-129.07,244.41c-11.77,22.23-25.5,38.64-41.19,49.23-15.69,10.59-34.39,15.89-56.1,15.89Z"/>
      <path d="m767.35,326.21l45.51-215.38h51l-3.53,37.66h1.57c8.1-13.34,17.32-23.6,27.66-30.8,10.33-7.19,22.95-10.79,37.86-10.79s26.02,3.67,34.13,10.99c8.1,7.33,13.6,17.52,16.48,30.6h1.57c8.37-13.08,18.05-23.27,29.03-30.6,10.98-7.32,23.8-10.99,38.45-10.99,17.78,0,31.25,5.49,40.41,16.48,9.15,10.98,13.73,26.42,13.73,46.29,0,10.46-1.44,22.62-4.31,36.49l-25.11,120.05h-65.12l25.5-123.18c.78-3.4,1.5-7.19,2.16-11.38.65-4.18.98-8.37.98-12.55,0-13.34-5.49-20.01-16.48-20.01s-21.06,6.54-28.64,19.62c-7.59,13.08-13.6,30.21-18.05,51.39l-19.62,96.12h-65.52l25.89-123.18c.78-3.66,1.5-7.58,2.16-11.77.65-4.18.98-7.85.98-10.98,0-14.12-5.49-21.18-16.48-21.18s-19.55,6.15-27.27,18.44c-7.72,12.3-14.06,29.69-19.03,52.18l-20.79,96.51h-65.12Z"/>
      <path d="m1198.1,330.13c-10.73,0-20.73-2.62-30.01-7.85-9.29-5.23-16.74-13.66-22.36-25.3-5.63-11.63-8.43-27.27-8.43-46.88,0-15.43,2.09-31.51,6.28-48.25,4.18-16.73,10.46-32.3,18.83-46.69,8.37-14.38,18.63-26.02,30.8-34.92,12.16-8.89,26.09-13.34,41.78-13.34,13.07,0,23.73,2.81,31.97,8.44,8.24,5.63,14.84,13.14,19.81,22.56h1.57l10.59-27.07h51.39l-45.9,215.38h-50.61l2.35-25.89h-1.57c-6.54,8.89-14.32,16.08-23.34,21.58s-20.08,8.24-33.15,8.24Zm26.28-52.57c6.8,0,13.14-2.88,19.03-8.63,5.88-5.75,10.92-13.2,15.1-22.36,4.18-9.15,7.19-18.83,9.02-29.03.78-4.71,1.37-9.35,1.77-13.93.39-4.57.59-9.48.59-14.71,0-8.63-1.9-15.69-5.69-21.18-3.79-5.49-9.09-8.24-15.89-8.24-6.02,0-11.77,2.55-17.26,7.65s-10.27,11.9-14.32,20.4c-4.06,8.5-7.26,17.85-9.61,28.05s-3.53,20.54-3.53,30.99c0,20.66,6.93,30.99,20.79,30.99Z"/>
      <path d="m1361.69,326.21l45.51-215.38h51l-3.53,38.05h1.57c8.89-14.38,18.57-24.97,29.03-31.78,10.46-6.8,22.75-10.2,36.88-10.2,3.14,0,6.34.14,9.61.39,3.27.26,5.82.66,7.65,1.18l-14.12,63.95c-2.62-1.04-5.76-1.89-9.41-2.55-3.67-.65-7.72-.98-12.16-.98-12.82,0-24.26,4.84-34.33,14.52-10.07,9.68-17.46,25.37-22.17,47.08l-20.4,95.72h-65.12Z"/>
      <path d="m1529.6,326.21l62.77-298.15h65.12l-27.46,130.25c-1.57,6.8-3.6,14.52-6.08,23.15-2.49,8.63-4.38,15.04-5.69,19.22h1.57l81.21-89.84h74.54l-94.94,97.29,53.75,118.08h-73.36l-30.99-78.07-21.58,12.16-13.73,65.91h-65.12Z"/>
    </g>
    <g>
      <path d="m2185.91,411.34c-7.58,0-14.52-.53-20.79-1.57-6.28-1.05-12.03-2.35-17.26-3.92v-54.14c4.45,1.04,9.29,2.02,14.52,2.94,5.24.91,11.12,1.37,17.65,1.37,12.3,0,22.3-3.6,30.01-10.79,7.71-7.2,13.54-19.81,17.46-37.86l55.71-261.28h65.91l-57.67,270.3c-4.71,22.75-11.45,41.12-20.2,55.12-8.77,13.99-20.14,24.13-34.13,30.4-14,6.28-31.05,9.42-51.2,9.42Z"/>
      <path d="m2424.82,330.13c-10.73,0-20.73-2.62-30.01-7.85-9.29-5.23-16.74-13.66-22.36-25.3-5.63-11.63-8.44-27.27-8.44-46.88,0-15.43,2.09-31.51,6.28-48.25,4.18-16.73,10.46-32.3,18.83-46.69,8.37-14.38,18.63-26.02,30.8-34.92,12.16-8.89,26.09-13.34,41.78-13.34,13.07,0,23.73,2.81,31.97,8.44,8.24,5.63,14.84,13.14,19.81,22.56h1.57l10.59-27.07h51.39l-45.9,215.38h-50.61l2.35-25.89h-1.57c-6.54,8.89-14.32,16.08-23.34,21.58-9.02,5.49-20.08,8.24-33.15,8.24Zm26.29-52.57c6.8,0,13.14-2.88,19.03-8.63,5.88-5.75,10.92-13.2,15.1-22.36,4.18-9.15,7.19-18.83,9.02-29.03.78-4.71,1.37-9.35,1.76-13.93.39-4.57.59-9.48.59-14.71,0-8.63-1.9-15.69-5.69-21.18-3.79-5.49-9.09-8.24-15.89-8.24-6.02,0-11.77,2.55-17.26,7.65s-10.27,11.9-14.32,20.4c-4.06,8.5-7.26,17.85-9.61,28.05-2.35,10.2-3.53,20.54-3.53,30.99,0,20.66,6.93,30.99,20.79,30.99Z"/>
      <path d="m2568.4,420.36l65.52-309.53h51l-2.75,28.64h1.57c6.28-9.15,13.99-16.87,23.15-23.15,9.15-6.28,20.01-9.42,32.56-9.42,17.26,0,31.91,6.41,43.94,19.22,12.03,12.82,18.05,32.7,18.05,59.63,0,17.53-2.29,34.85-6.87,51.98-4.58,17.13-11.18,32.7-19.81,46.68-8.63,14-18.97,25.11-30.99,33.35-12.03,8.24-25.63,12.36-40.8,12.36-11.51,0-20.86-2.81-28.05-8.43-7.2-5.62-13.41-12.75-18.63-21.38h-1.57c-.79,10.46-1.83,20.34-3.14,29.62-1.31,9.28-3.27,20.46-5.88,33.54l-12.16,56.88h-65.12Zm122.4-142.8c6.28,0,12.09-2.55,17.46-7.65,5.36-5.1,10-11.9,13.93-20.4,3.92-8.5,7.06-17.91,9.42-28.25,2.35-10.33,3.53-20.6,3.53-30.8,0-20.66-7.06-30.99-21.19-30.99-7.59,0-14.26,2.94-20.01,8.83-5.76,5.88-10.46,13.41-14.12,22.56-3.67,9.16-6.41,18.7-8.24,28.64-1.83,9.94-2.75,18.97-2.75,27.07,0,9.42,1.96,16.94,5.88,22.56,3.92,5.63,9.28,8.43,16.08,8.43Z"/>
      <path d="m2895.98,330.13c-10.73,0-20.73-2.62-30.01-7.85-9.29-5.23-16.74-13.66-22.36-25.3-5.63-11.63-8.44-27.27-8.44-46.88,0-15.43,2.09-31.51,6.28-48.25,4.18-16.73,10.46-32.3,18.83-46.69,8.37-14.38,18.63-26.02,30.8-34.92,12.16-8.89,26.09-13.34,41.78-13.34,13.07,0,23.73,2.81,31.97,8.44,8.24,5.63,14.84,13.14,19.81,22.56h1.57l10.59-27.07h51.39l-45.9,215.38h-50.61l2.35-25.89h-1.57c-6.54,8.89-14.32,16.08-23.34,21.58-9.02,5.49-20.08,8.24-33.15,8.24Zm26.29-52.57c6.8,0,13.14-2.88,19.03-8.63,5.88-5.75,10.92-13.2,15.1-22.36,4.18-9.15,7.19-18.83,9.02-29.03.78-4.71,1.37-9.35,1.76-13.93.39-4.57.59-9.48.59-14.71,0-8.63-1.9-15.69-5.69-21.18-3.79-5.49-9.09-8.24-15.89-8.24-6.02,0-11.77,2.55-17.26,7.65s-10.27,11.9-14.32,20.4c-4.06,8.5-7.26,17.85-9.61,28.05-2.35,10.2-3.53,20.54-3.53,30.99,0,20.66,6.93,30.99,20.79,30.99Z"/>
      <path d="m3059.57,326.21l45.51-215.38h51l-3.14,35.31h1.57c7.85-12.55,16.87-22.23,27.07-29.03,10.2-6.8,22.49-10.2,36.88-10.2,19.09,0,33.21,5.82,42.37,17.46,9.15,11.64,13.73,26.35,13.73,44.13,0,5.76-.39,11.97-1.18,18.63-.79,6.67-1.83,13.41-3.14,20.2l-25.11,118.87h-65.12l25.5-122.01c.78-3.92,1.5-8.1,2.16-12.55.65-4.44.98-8.5.98-12.16,0-6.8-1.57-11.9-4.71-15.3-3.14-3.4-7.45-5.1-12.95-5.1-10.46,0-19.62,6.47-27.46,19.42s-13.99,30.01-18.44,51.2l-20.4,96.51h-65.12Z"/>
    </g>
  </g>
</svg>