<?xml version="1.0" encoding="UTF-8"?>
<svg id="Layer_2" data-name="Layer 2" xmlns="http://www.w3.org/2000/svg" viewBox="0 0 167 124">
  <defs>
    <style>
      .cls-1 {
        fill: #f55;
      }

      .cls-2 {
        stroke-width: 9px;
      }

      .cls-2, .cls-3 {
        fill: none;
        stroke: #f55;
        stroke-linejoin: round;
      }

      .cls-3 {
        stroke-linecap: round;
        stroke-width: 5px;
      }
    </style>
  </defs>
  <g id="Layer_1-2" data-name="Layer 1">
    <path class="cls-1" d="m152.9,9c2.81,0,5.1,2.29,5.1,5.1v95.8c0,2.81-2.29,5.1-5.1,5.1H14.1c-2.81,0-5.1-2.29-5.1-5.1V14.1c0-2.81,2.29-5.1,5.1-5.1h138.8m0-9H14.1C6.31,0,0,6.31,0,14.1v95.8c0,7.79,6.31,14.1,14.1,14.1h138.8c7.79,0,14.1-6.31,14.1-14.1V14.1c0-7.79-6.31-14.1-14.1-14.1h0Z"/>
    <polyline class="cls-2" points="83.5 123.5 83.5 75.32 83.5 60.09 83.5 0"/>
    <path class="cls-3" d="m100,24.36c3.6,0,3.6,4.32,7.2,4.32s3.6-4.32,7.2-4.32,3.6,4.32,7.2,4.32,3.6-4.32,7.2-4.32,3.6,4.32,7.21,4.32,3.6-4.32,7.21-4.32"/>
    <path class="cls-3" d="m100,59.6c3.6,0,3.6,4.32,7.2,4.32s3.6-4.32,7.2-4.32,3.6,4.32,7.2,4.32,3.6-4.32,7.2-4.32,3.6,4.32,7.21,4.32,3.6-4.32,7.21-4.32"/>
    <path class="cls-3" d="m100,94.84c3.6,0,3.6,4.32,7.2,4.32s3.6-4.32,7.2-4.32,3.6,4.32,7.2,4.32,3.6-4.32,7.2-4.32,3.6,4.32,7.21,4.32,3.6-4.32,7.21-4.32"/>
    <g>
      <path class="cls-1" d="m27.73,64.54c.25,1.67.71,3.28,1.36,4.81l-24.09,6.86v-5.2l22.73-6.47m5.22-6.69L0,67.23v15.6l37.07-10.56c-2.82-2.73-4.57-6.55-4.57-10.77,0-1.26.16-2.48.45-3.65h0Z"/>
      <path class="cls-1" d="m41.76,5l5.34,36.5c-1.68.03-3.34.28-4.95.73l-5.45-37.23h5.05m4.32-5h-15.16l7.28,49.74c2.55-2.03,5.79-3.24,9.3-3.24,1.96,0,3.82.37,5.54,1.06L46.08,0h0Z"/>
      <path class="cls-1" d="m42.66,80.91c1.57.39,3.19.59,4.84.59.04,0,.09,0,.13,0l-4.49,37.5h-5.05l4.56-38.09m-4.15-7.41l-6.05,50.5h15.12l5.83-48.71c-1.82.78-3.81,1.21-5.91,1.21-3.37,0-6.49-1.12-8.99-3h0Zm14.9,1.79h0,0Z"/>
      <path class="cls-1" d="m67.48,62.41l11.02,1.9v5.08l-11.87-2.05c.49-1.59.78-3.25.85-4.93m-5.9-6.09c.6,1.62.92,3.36.92,5.18,0,3.65-1.31,7-3.48,9.6l24.48,4.22v-15.23l-21.92-3.77h0Z"/>
    </g>
    <path class="cls-3" d="m62.5,61.5c0,3.65-1.31,7-3.48,9.6-1.5,1.81-3.42,3.25-5.61,4.19-1.82.78-3.81,1.21-5.91,1.21-3.37,0-6.49-1.12-8.99-3-.5-.38-.98-.79-1.43-1.23h-.01c-2.82-2.73-4.57-6.55-4.57-10.77,0-1.26.16-2.48.45-3.65.81-3.26,2.69-6.09,5.25-8.11,2.55-2.03,5.79-3.24,9.3-3.24,1.96,0,3.82.37,5.54,1.06,3.95,1.57,7.07,4.77,8.54,8.76.6,1.62.92,3.36.92,5.18Z"/>
  </g>
</svg>