<?xml version="1.0" encoding="UTF-8"?>
<svg id="Layer_2" data-name="Layer 2" xmlns="http://www.w3.org/2000/svg" viewBox="0 0 124.89 116.87">
  <defs>
    <style>
      .cls-1 {
        fill: #c33;
      }
    </style>
  </defs>
  <g id="Layer_1-2" data-name="Layer 1">
    <path class="cls-1" d="m107.14,42.69c-.16.14-.34.27-.54.4-.01,0-.02,0-.02.02-.96.61-2.1.89-3.24.89H21.56c-1.14,0-2.28-.28-3.24-.89,0-.01-.01-.01-.02-.02-.2-.13-.38-.26-.54-.4-.76-.63-.32-1.88.67-1.9,1.67-.02,3.81-.27,6.13-1.13,4.09-1.5,6.68-4.11,8.01-5.73.38-.47.95-.73,1.56-.73h56.64c.61,0,1.18.26,1.56.73,1.33,1.62,3.92,4.23,8.01,5.73,2.32.86,4.46,1.11,6.13,1.13.99.02,1.43,1.27.67,1.9Z"/>
    <path class="cls-1" d="m94.29,13.23c-1.57.13-2.8-.1-3.59-.31-4.51-1.23-7.96-5.67-9.11-11.43-.17-.86-.93-1.49-1.82-1.49h-34.64c-.89,0-1.65.63-1.82,1.49-1.15,5.76-4.6,10.2-9.11,11.43-.79.21-2.02.44-3.59.31-1.02-.09-1.81.91-1.4,1.85.27.62.63,1.27,1.1,1.87.01.01.01.02.02.03.81,1,2.05,1.53,3.34,1.53h57.56c1.29,0,2.53-.53,3.34-1.53.01,0,.01-.02.02-.03.47-.6.83-1.25,1.1-1.87.41-.94-.38-1.94-1.4-1.85Zm-41.58,1.86c1.7-.99,3.9-2.49,5.85-4.59,1.97-2.12,3.03-4.13,3.61-5.66.11-.28.2-.54.28-.79.51,1.59,1.56,3.94,3.89,6.45,1.95,2.1,4.15,3.6,5.85,4.59h-19.48Z"/>
    <path class="cls-1" d="m95.93,53.23v.97h-15.74c-2.56-.72-5.63-1.87-8.84-3.76-3.57-2.1-6.22-4.48-8.06-6.44h11.49c2.2,1.38,4.66,2.75,7.35,4.05,5.08,2.46,9.8,4.08,13.8,5.18Z"/>
    <path class="cls-1" d="m123.83,66.54c-.33.45-.74.92-1.27,1.36-.01,0-.02.02-.03.02-1.07.88-2.45,1.31-3.84,1.31H6.21c-1.39,0-2.77-.43-3.84-1.31-.01,0-.02-.01-.03-.02-.53-.44-.94-.91-1.27-1.36-.65-.91-.13-2.2.97-2.39,1.92-.34,4.53-1.1,7.19-2.84,2.6-1.71,4.34-3.75,5.45-5.43,1.02-1.53,2.71-2.48,4.54-2.48h86.46c1.83,0,3.52.95,4.54,2.48,1.11,1.68,2.85,3.72,5.45,5.43,2.66,1.74,5.27,2.5,7.19,2.84,1.1.19,1.62,1.48.97,2.39Z"/>
    <path class="cls-1" d="m28.97,53.23v.97s15.74,0,15.74,0c2.56-.72,5.63-1.87,8.84-3.76,3.57-2.1,6.22-4.48,8.06-6.44h-11.49c-2.2,1.38-4.66,2.75-7.35,4.05-5.08,2.46-9.8,4.08-13.8,5.18Z"/>
    <polygon class="cls-1" points="124.89 116.87 0 116.87 16.08 83.47 108.82 83.47 124.89 116.87"/>
    <rect class="cls-1" x="16.08" y="65.74" width="7.44" height="21.2"/>
    <rect class="cls-1" x="101.37" y="65.74" width="7.44" height="21.2"/>
    <g>
      <rect class="cls-1" x="28.97" y="38.6" width="5.37" height="19.14"/>
      <rect class="cls-1" x="90.55" y="38.6" width="5.37" height="19.14"/>
    </g>
    <g>
      <rect class="cls-1" x="37.67" y="16.26" width="3.98" height="20.28"/>
      <rect class="cls-1" x="83.24" y="16.26" width="3.98" height="20.28"/>
    </g>
    <g>
      <g>
        <rect class="cls-1" x="32.38" y="73.35" width="4.34" height="8.29" rx=".89" ry=".89"/>
        <rect class="cls-1" x="40.48" y="73.35" width="4.34" height="8.29" rx=".89" ry=".89"/>
      </g>
      <g>
        <rect class="cls-1" x="56.23" y="73.35" width="4.34" height="8.29" rx=".89" ry=".89"/>
        <rect class="cls-1" x="64.33" y="73.35" width="4.34" height="8.29" rx=".89" ry=".89"/>
      </g>
      <g>
        <rect class="cls-1" x="80.08" y="73.35" width="4.34" height="8.29" rx=".89" ry=".89"/>
        <rect class="cls-1" x="88.18" y="73.35" width="4.34" height="8.29" rx=".89" ry=".89"/>
      </g>
    </g>
    <g>
      <rect class="cls-1" x="67.46" y="23.14" width="7.23" height="15.46" rx="3.61" ry="3.61"/>
      <rect class="cls-1" x="50.2" y="23.14" width="7.23" height="15.46" rx="3.61" ry="3.61"/>
    </g>
  </g>
</svg>