<?xml version="1.0" encoding="UTF-8"?>
<svg id="Layer_2" data-name="Layer 2" xmlns="http://www.w3.org/2000/svg" viewBox="0 0 137.5 144">
  <defs>
    <style>
      .cls-1 {
        fill: #c33;
      }
    </style>
  </defs>
  <g id="Layer_1-2" data-name="Layer 1">
    <path class="cls-1" d="m102.5,43.32v98.36c0,1.28,1.04,2.32,2.32,2.32h30.36c1.28,0,2.32-1.04,2.32-2.32V43.32c0-1.28-1.04-2.32-2.32-2.32h-30.36c-1.28,0-2.32,1.04-2.32,2.32Zm20.01,87.18h-8.02c-1.28,0-2.32-1.04-2.32-2.32v-5.1c0-1.28,1.04-2.32,2.32-2.32h8.02c1.28,0,2.32,1.04,2.32,2.32v5.1c0,1.28-1.04,2.32-2.32,2.32Zm0-16.56h-8.02c-1.28,0-2.32-1.04-2.32-2.32v-5.11c0-1.28,1.04-2.32,2.32-2.32h8.02c1.28,0,2.32,1.04,2.32,2.32v5.11c0,1.28-1.04,2.32-2.32,2.32Zm0-16.57h-8.02c-1.28,0-2.32-1.04-2.32-2.32v-5.1c0-1.28,1.04-2.32,2.32-2.32h8.02c1.28,0,2.32,1.04,2.32,2.32v5.1c0,1.28-1.04,2.32-2.32,2.32Zm0-16.56h-8.02c-1.28,0-2.32-1.04-2.32-2.32v-5.11c0-1.28,1.04-2.32,2.32-2.32h8.02c1.28,0,2.32,1.04,2.32,2.32v5.11c0,1.28-1.04,2.32-2.32,2.32Zm0-16.57h-8.02c-1.28,0-2.32-1.04-2.32-2.32v-5.1c0-1.28,1.04-2.32,2.32-2.32h8.02c1.28,0,2.32,1.04,2.32,2.32v5.1c0,1.28-1.04,2.32-2.32,2.32Z"/>
    <path class="cls-1" d="m102.5,18.75v122.5c0,1.52-1.23,2.75-2.75,2.75h-42c-1.52,0-2.75-1.23-2.75-2.75v-1c0-1.52,1.23-2.75,2.75-2.75h36.5c1.52,0,2.75-1.23,2.75-2.75V25.25c0-1.52-1.23-2.75-2.75-2.75h-58.5c-1.52,0-2.75,1.23-2.75,2.75v57c0,1.52-1.23,2.75-2.75,2.75h0c-1.52,0-2.75-1.23-2.75-2.75V18.75c0-1.52,1.23-2.75,2.75-2.75h69.5c1.52,0,2.75,1.23,2.75,2.75Z"/>
    <rect class="cls-1" x="69.5" width="6" height="18.5" rx="1.8" ry="1.8"/>
    <path class="cls-1" d="m15,83.29v-12.07c0-.95-.77-1.71-1.71-1.71h-2.57c-.95,0-1.71.77-1.71,1.71v12.07c0,.95-.77,1.71-1.71,1.71H1.71c-.95,0-1.71.77-1.71,1.71v55.57c0,.95.77,1.71,1.71,1.71h51.57c.95,0,1.71-.77,1.71-1.71v-55.57c0-.95-.77-1.71-1.71-1.71H16.71c-.95,0-1.71-.77-1.71-1.71Zm6.79,49.71h-8.57c-.95,0-1.71-.77-1.71-1.71v-6.57c0-.95.77-1.71,1.71-1.71h8.57c.95,0,1.71.77,1.71,1.71v6.57c0,.95-.77,1.71-1.71,1.71Zm0-14.5h-8.57c-.95,0-1.71-.77-1.71-1.71v-6.57c0-.95.77-1.71,1.71-1.71h8.57c.95,0,1.71.77,1.71,1.71v6.57c0,.95-.77,1.71-1.71,1.71Zm0-14.5h-8.57c-.95,0-1.71-.77-1.71-1.71v-6.57c0-.95.77-1.71,1.71-1.71h8.57c.95,0,1.71.77,1.71,1.71v6.57c0,.95-.77,1.71-1.71,1.71Zm20,29h-8.57c-.95,0-1.71-.77-1.71-1.71v-6.57c0-.95.77-1.71,1.71-1.71h8.57c.95,0,1.71.77,1.71,1.71v6.57c0,.95-.77,1.71-1.71,1.71Zm0-14.5h-8.57c-.95,0-1.71-.77-1.71-1.71v-6.57c0-.95.77-1.71,1.71-1.71h8.57c.95,0,1.71.77,1.71,1.71v6.57c0,.95-.77,1.71-1.71,1.71Zm0-14.5h-8.57c-.95,0-1.71-.77-1.71-1.71v-6.57c0-.95.77-1.71,1.71-1.71h8.57c.95,0,1.71.77,1.71,1.71v6.57c0,.95-.77,1.71-1.71,1.71Z"/>
    <rect class="cls-1" x="83" width="6" height="18.5" rx="1.8" ry="1.8"/>
    <circle class="cls-1" cx="75.5" cy="114" r="13"/>
    <rect class="cls-1" x="72" y="124" width="7" height="16"/>
    <rect class="cls-1" x="63" y="84.5" width="27" height="6" rx="1.78" ry="1.78"/>
    <rect class="cls-1" x="40" y="71.5" width="50" height="6" rx="1.78" ry="1.78"/>
    <rect class="cls-1" x="40" y="50.5" width="50" height="6" rx="1.78" ry="1.78"/>
    <rect class="cls-1" x="40" y="32.5" width="50" height="6" rx="1.78" ry="1.78"/>
    <rect class="cls-1" x="27.5" y="77.5" width="5.5" height="9"/>
    <rect class="cls-1" x="53.79" y="132.79" width="6.5" height="15.92" transform="translate(197.79 83.71) rotate(90)"/>
    <rect class="cls-1" x="98.63" y="41" width="10.02" height="103"/>
  </g>
</svg>