<?xml version="1.0" encoding="UTF-8"?>
<svg id="Layer_2" data-name="Layer 2" xmlns="http://www.w3.org/2000/svg" viewBox="0 0 173.74 160.02">
  <defs>
    <style>
      .cls-1 {
        fill: #c33;
      }
    </style>
  </defs>
  <g id="Layer_1-2" data-name="Layer 1">
    <rect class="cls-1" x="12.75" y="151.94" width="148.24" height="8.08"/>
    <path class="cls-1" d="m47.1,127.71v.28c.7-.03,1.45-.13,2.23-.28h-2.23Zm120.04-27.9c1.07-3.33,1.83-6.63,2.3-9.9.47-3.27.7-6.63.7-10.1s-.23-7-.7-10.2c-.47-3.2-1.23-6.54-2.3-10,1.87-1.2,3.43-2.87,4.7-5,1.27-2.14,1.9-4.67,1.9-7.61,0-4.26-1.5-7.9-4.5-10.9s-6.63-4.5-10.9-4.5c-.94,0-1.87.1-2.8.3-.94.2-1.87.44-2.8.7-4.54-5.07-9.8-9.03-15.81-11.9-6-2.87-12.4-5.17-19.2-6.9-.53-4.13-2.26-7.47-5.2-10-2.93-2.54-6.33-3.8-10.2-3.8s-7.23,1.23-10.1,3.7c-2.87,2.47-4.64,5.83-5.3,10.1-6.8,1.73-12.97,4.2-18.5,7.4-5.54,3.2-10.64,7.2-15.31,12-1.06-.53-2.2-.93-3.4-1.2-1.2-.26-2.33-.4-3.4-.4-4.26,0-7.9,1.5-10.9,4.5s-4.5,6.64-4.5,10.9c0,2.67.63,5.11,1.9,7.31,3.16-1.31,6.58-1.97,10.25-1.97,5.62,0,10.64,1.54,15.07,4.62,2.39-2.66,3.58-5.97,3.58-9.96,0-1.06-.06-2.03-.2-2.9-.13-.86-.46-1.83-1-2.9,3.87-4.4,8.24-7.93,13.11-10.6,4.86-2.66,10.23-4.8,16.1-6.4,1.2,1.73,2.87,3.27,5,4.6,2.13,1.34,4.67,2,7.6,2s5.5-.66,7.7-2c2.2-1.33,3.83-2.87,4.9-4.6,5.87,1.6,11.14,3.74,15.8,6.4,4.67,2.67,9.14,6.07,13.41,10.2-.4,1.07-.7,2.07-.9,3-.2.94-.3,2-.3,3.2,0,3.87,1.3,7.27,3.9,10.21,2.6,2.93,5.9,4.66,9.9,5.2.8,2.66,1.43,5.43,1.9,8.3.46,2.86.7,5.9.7,9.1s-.24,6.1-.7,9.1c-.47,3-1.17,5.83-2.1,8.5-4.4-.27-7.77,1.13-10.1,4.2-2.34,3.07-3.5,6.74-3.5,11,0,1.07.13,2.1.4,3.1.26,1,.53,1.9.8,2.7-1.34,1.47-2.77,2.84-4.3,4.1-1.54,1.27-3.04,2.44-4.51,3.51l-14.2-31.01c2-2.13,3.44-4.43,4.3-6.9.87-2.47,1.3-5.17,1.3-8.1,0-6.67-2.3-12.4-6.9-17.2-4.6-4.8-10.23-7.2-16.9-7.2s-12.5,2.4-17.5,7.2c-5,4.8-7.5,10.53-7.5,17.2,0,.47.01.93.04,1.38,1.38,1.34,2.62,2.85,3.72,4.53,2.97,4.54,4.45,9.49,4.45,14.88,0,7.44-2.63,13.79-7.88,19.04-2.66,2.66-5.61,4.65-8.83,5.95l-.1.23c-.05-.04-.11-.08-.16-.13-3.07,1.22-6.38,1.82-9.95,1.82h-4.57c1.41,1.37,2.8,2.64,4.17,3.81,1.8,1.53,3.84,3.1,6.1,4.7l-6.87,15.72-3.53,8.08h11.2l3.83-8.08,4.98-10.52c1.86.93,3.83,1.73,5.9,2.4,2.06.66,4.23,1.33,6.5,2,.35,2.32,1,4.36,1.97,6.12.86,1.58,1.97,2.94,3.33,4.08,2.87,2.4,6.23,3.6,10.1,3.6s7.23-1.2,10.1-3.6c1.36-1.14,2.47-2.5,3.33-4.08.97-1.76,1.62-3.8,1.97-6.12,2.27-.67,4.4-1.34,6.4-2,2-.67,4.14-1.4,6.4-2.2l4.72,10.32,3.69,8.08h11.4l-3.46-8.08-6.74-15.72c2.13-1.47,4.13-3,6-4.6,1.86-1.6,3.66-3.34,5.4-5.2.93.53,2.03.93,3.3,1.2,1.26.26,2.43.4,3.5.4,4.27,0,7.9-1.5,10.9-4.51,3-3,4.5-6.63,4.5-10.9,0-2.26-.53-4.6-1.6-7-1.07-2.4-2.73-4.33-5-5.8Zm-46.11,33.81c-1.8.66-3.83,1.26-6.1,1.8-1.07-1.87-2.7-3.44-4.9-4.7-2.2-1.27-4.77-1.9-7.7-1.9s-5.4.63-7.4,1.9c-2,1.26-3.73,2.83-5.2,4.7-2.14-.54-4.17-1.17-6.1-1.9-1.94-.74-3.7-1.44-5.3-2.1l13-30.21c1.6,1.07,3.33,1.87,5.2,2.4,1.87.54,3.73.8,5.6.8s3.73-.23,5.6-.7c1.87-.46,3.6-1.23,5.2-2.3l13,30.21c-1.46.66-3.1,1.33-4.9,2Zm-73.93-5.63c.7-.03,1.45-.13,2.23-.28h-2.23v.28Zm0-.28v.28c.7-.03,1.45-.13,2.23-.28h-2.23Z"/>
    <path class="cls-1" d="m81.69,85.92c-1.1-1.68-2.34-3.19-3.72-4.53-2.34-2.27-5.09-4.06-8.25-5.36-.81-6.73-3.75-12.36-8.82-16.89-.89-.8-1.81-1.52-2.76-2.18-4.43-3.08-9.45-4.62-15.07-4.62-3.67,0-7.09.66-10.25,1.97-2.72,1.13-5.24,2.74-7.59,4.83-5.07,4.53-8.01,10.16-8.81,16.89-5.03,2.07-9.02,5.36-11.98,9.89-2.96,4.54-4.44,9.49-4.44,14.88,0,7.44,2.62,13.79,7.87,19.04s11.6,7.87,19.05,7.87h12.11v24.23h8.07v-24.23h12.12c3.57,0,6.88-.6,9.95-1.82.09-.02.17-.06.26-.1,3.22-1.3,6.17-3.29,8.83-5.95,5.25-5.25,7.88-11.6,7.88-19.04,0-5.39-1.48-10.34-4.45-14.88Zm-11.21,26.14c-2.68,2.68-5.66,4.16-9.25,4.54-.65.08-1.32.11-2.01.11H26.92c-4.52,0-8.1-1.48-11.27-4.65-3.18-3.17-4.65-6.75-4.65-11.26,0-3.23.87-6.13,2.65-8.86,1.75-2.68,3.96-4.5,6.95-5.74l5.98-2.46.76-6.41c.48-4.07,2.14-7.24,5.22-9.99,1.13-1,2.28-1.81,3.51-2.43,2.1-1.06,4.4-1.57,7-1.57,1.62,0,3.12.2,4.54.62,2.16.61,4.11,1.73,5.96,3.38,3.07,2.75,4.74,5.93,5.23,10l.77,6.4,5.95,2.46c3,1.23,5.21,3.06,6.96,5.74,1.79,2.73,2.66,5.63,2.66,8.86,0,4.51-1.48,8.08-4.66,11.26Z"/>
  </g>
</svg>