<?xml version="1.0" encoding="UTF-8"?>
<svg id="Layer_2" data-name="Layer 2" xmlns="http://www.w3.org/2000/svg" viewBox="0 0 192 196">
  <defs>
    <style>
      .cls-1 {
        fill: #c33;
      }
    </style>
  </defs>
  <g id="Layer_1-2" data-name="Layer 1">
    <path class="cls-1" d="m158,103c0,7-1.16,13.73-3.3,20H37.3c-2.14-6.27-3.3-13-3.3-20,0-1.01.02-2.01.07-3,1.35-28.36,21.76-51.73,48.7-57.58,4.26-.93,8.69-1.42,13.23-1.42s8.97.49,13.23,1.42c26.94,5.85,47.35,29.22,48.7,57.58.05.99.07,1.99.07,3Z"/>
    <path class="cls-1" d="m174.5,111.5c0,3.18-1.29,6.05-3.37,8.13-2.08,2.08-4.95,3.37-8.13,3.37H29c-6.35,0-11.5-5.15-11.5-11.5,0-3.18,1.29-6.05,3.37-8.13,2.08-2.08,4.95-3.37,8.13-3.37h134c6.35,0,11.5,5.15,11.5,11.5Z"/>
    <path class="cls-1" d="m13.63,173h164.75c7.52,0,13.63,6.11,13.63,13.63v7.49c0,1.04-.84,1.88-1.88,1.88H1.88c-1.04,0-1.88-.84-1.88-1.88v-7.49c0-7.52,6.11-13.63,13.63-13.63Z"/>
    <path class="cls-1" d="m21.67,165h148.65c2.3,0,4.17,1.87,4.17,4.17v4.83H17.5v-4.83c0-2.3,1.87-4.17,4.17-4.17Z"/>
    <circle class="cls-1" cx="96" cy="47" r="14"/>
    <g>
      <rect class="cls-1" x="35" y="116" width="23" height="58"/>
      <rect class="cls-1" x="68" y="116" width="23" height="58"/>
      <rect class="cls-1" x="101" y="116" width="23" height="58"/>
      <rect class="cls-1" x="134" y="116" width="23" height="58"/>
    </g>
    <rect class="cls-1" x="92" width="8" height="39"/>
    <polygon class="cls-1" points="119.5 17.29 127.93 23 98 23 98 0 128 0 119.5 5.76 111 11.52 119.5 17.29"/>
    <polygon class="cls-1" points="96.04 23 96.04 23.05 95.96 23 96.04 23"/>
  </g>
</svg>