<?xml version="1.0" encoding="UTF-8"?>
<svg id="Layer_2" data-name="Layer 2" xmlns="http://www.w3.org/2000/svg" viewBox="0 0 153 203.79">
  <defs>
    <style>
      .cls-1 {
        fill: #c33;
      }
    </style>
  </defs>
  <g id="Layer_1-2" data-name="Layer 1">
    <path class="cls-1" d="m112.96,0c-1.78.1-.22,2.41-1.53,3.03-4.22,3.05,4.12,6.4,1.4,10.16-.17,3.12-.32,5.33-.02,8.41-3.68,5.15-.66,1.55-1.32,7.61-.97,5.4-10.02-2.23-9.77,3.13,1.88,1.89,1.62,3.82-.74,5.49-11.08,6.95,3.15,9.27-.02,13.74-3.96,4.11,4.34,7.58,3.47.58,1.49-4,4.69,1.7,6.75-2.18,1.46-1.9-4.27-.92-3.46-3.25-.76-1.82-4.64.39-5.49-2.41-1.17-3.06,3.14-5.63,5.1-3.23,2.08,6.16,3.14-5.3,11.31-1.75,3.46,3,7.48,4.96,11.85,5.9,2.87,1.9.48-5.88,2.16-7.12,6.35-12.18,12.35-4.63,11.23-7.86-.62-.74.02-2.3,1.17-.88,1.74.68,5.34-2.59,6.54-4.17.42-.75,3.3-2.24-.7-.6-3.74.46-7.02-7.55-4.09-10.33,2.04-7.06-2.33,1.2-4.52,2.51-1.68.84-4.88-.23-7.39-.25-9.36-1.93-14.79-11.39-21.94-16.55Zm-2.39,55.2c-2.84,1.86-2.38,7.63,1.46,3.8,2.38-2.96,2.12,6.13.16,4.01-.98-.97-1.81-.31-2.06.43-3.34,3.65-1.21-5.68-4.24-4.16-4.07.48.37,7.39-4.73,8.27-.55.28-1.35.75-.41,1.6,3.56,3.11,1.79,6.41-.5,9.46,2.13,4.2,3.15-4.02,3.33-.74,2.66,7.86-1.66,14.43-2.84,22.09-.02,4.41-4.83,4.71-6,8.7-1.09,3.72-3.23,7.17-6.79,9.05-1.47,1.64-4.19,1.42-5.84,2.78-.8.63-.35,2.48-2.3,2.18-2.96-.71-.76-3.39-2.34-3.87-1.53-1.26,2.67-2.37,2.94-3.95,1.61-4.5-3.87-.39-5.74.74-2.91,2.47,1.53,5.94-.64,9.46-11.75,13.73-.28,9.84-7.28,15.02-1.73,3.3-3.93-.99-4.83,1.27-.73,1.7-1.67-1.14-1.19-2.34-1.08-3.22-2.55,3.27-7.34,1.01-3.5.97-5.86,3.44-9.71,2.8-2.13-.09-4.86,2.49-5.58.21-2.85-2.87-8.64,7.4-11.81,9.56-2.52,3.24-5.12,3.74-7.53,6.71-1.05.63-3.98.14-4.07,1.64-.17,1.66-.45,3.44,1.6,3.46,2.21,1.1,1.23,2.83,4.36,0,5.8-3.03,7.1,7.91,8.6-3.29.07-4.48,4.21,1.92,5.47-.6,2.05-.85,4.39-2.72,6.62-2.9,1.49,1.05.9-1.57,2.47-1.19,1.17.41,1.54-1.27,2.47-.04,3.07.64,4.76-5.49,9.07-4.01,2.42,1.43,8.48-.79,8.68,1.89-.06,2.79-3.99,2.4-2.98,5.58-.52,4.27,3.9,7.12,7.43,8.39,1.56-.73,3.43-1.48,3-3.83-.69-2.9,3.16-2.64,2.86-5.27.14-2.35,3.72-2.64,5.43-2.88,5.01-3.75-9.86-4.71-1.66-9.4,2.82-.7-.62,5.29,4.79,2.45,1.92-.17.94.95.49,1.24-2.96,1.85-.91,1.24.41.74,5.44-2.34,12.03,1.76,12.84-6.05.19-1.4,1.3-1.43,2.49-2.2,3.14-1.89.25,7.75,3.31,5.33,5.2-5-.94-6.42,2.78-9.52.95-.34,3.29-.7,3.35.72.29,1.52,2.95.15,1.15-2.06-3.48-3.02,5.07-6.7,3.31-2.67-2.44,1.22-2.76,7.26-.64,8.68,1.72-.31.82-1.6,2.32-2.61,1.12-1.25,2.88-.82,2.61-3.41-.03-2.68-.29-5.12,2.82-6.07,1.31-3.94-7.16-5.89-.51-16.62,3.91-6.18-7.47-14.55.22-18.86,1.16-.86,4.03,1.6,2.86-.95-3.96-6.08,5.06-11.18,2.22-17.42-1.63-6.19-7.79-8.98-9.24-14.79-1.17-11.09.27-4.52-5.14-7.57Zm-19.45,45.52c-.9.01-3.01,4.53-1.8,4.69.82.18-.33,3.98,1.3,2.04,3.77-3.38.68-1.77.76-4.3.31-.86,1.12-2.33-.25-2.42h0Zm-32.03,53.3c-4.49,1.95-1.72,7.79-.28,3.53-.11-.76,2.29-3.18.28-3.53Zm-10.63,3.67c-5.05,1.62-2.33,5.27-7.98,6.09-1.69,1.51-2.11-3.4-4.16-1.19-1.88,3.13-2.71,7.37-7.08,8.64-4.21,1.47,7.59-2.4,2.18,6.79-1.27,3.69,1.15-3.69,3.25,1.73.98,1.56,2.04-1.01,3.33-.45,1.07.2.77-.88.41-1.23-.86-1.09,1.57-2.27,1.87-3.35.54-2.41,1.81-3.8,3.75-5.12,2.59-3.43,5.91,3.83,7.34,1.52-.15-3.96,7.44-5.93,4.84-9.44-1.27-.26.08-2.8-1.77-2.35-1.21.1-1.87-.94-3.19-1.34-1.12-.02-1.63.32-2.8-.3h0Zm-33.07,7.29c-6.76,1.26-4.58,5.48-7.45,5.14-2.09-.95-1.07,2.59-3.25,1.85-2.32-.92-.59,3.47-2.72,2.02-3.9-.77-1.22,4.16,1.11,4.15,2.43.2,2.11,5.06,0,1.65-1.16-3.07-2.8-.4-1.23,1.15.54.38,1.5,1.38,1.05,2.2-.59,3.21,5.36-4.86,4.5-.51-.32,1.24.51,1.47,1.48.58,4.35-4.97-3.35-.24-1.52-6.05,1.4-3.16,3.16,1.71,4.28,2.8,1.9,2.05-1.59,3.67-.06,3.91,2.39,3.81-7.18,7.82-2.49,11.85,2.91,3.27-5.15,7.13,4.53,6.66,1.54-2.96-4.23-4.45.66-6.62,2.86-.7-2.58,1.44.74,3.21,2.82,1.37-3.87,6.15,1.13,4.48,3.11-.63,2.78-7.06,4.59-4.53.32.67,1.28.86,1.81-.29.72-6.73.58-12.96,4.73-19.01,1.33-1.77-1.02-5.12-2.78-5.86-1.83.07-1.44-1.17-.8-1.87,2.51-6.53-6.23,2.15-8.31-6.91Z"/>
  </g>
</svg>