<?xml version="1.0" encoding="UTF-8"?>
<svg id="Layer_2" data-name="Layer 2" xmlns="http://www.w3.org/2000/svg" viewBox="0 0 147.29 167.85">
  <defs>
    <style>
      .cls-1 {
        fill: #c33;
      }
    </style>
  </defs>
  <g id="Layer_1-2" data-name="Layer 1">
    <path class="cls-1" d="m95.43,72.42c-1.84-1.85-3.99-2.77-6.44-2.77h-16.88v-1.53c0-2.73-.4-5.29-1.21-7.67-1.08-3.22-2.91-6.11-5.47-8.67-.29-.29-.59-.58-.89-.86-1.39-1.26-2.87-2.31-4.45-3.15-3.27-1.78-6.93-2.66-10.99-2.66h-.01c-6.45,0-11.89,2.22-16.33,6.67-4.45,4.45-6.68,9.9-6.68,16.34v1.53H9.2c-2.45,0-4.6.92-6.44,2.77-1.84,1.84-2.76,3.98-2.76,6.44v79.78c0,2.46.92,4.6,2.76,6.44,1.84,1.85,3.99,2.77,6.44,2.77h79.79c2.45,0,4.6-.92,6.44-2.77,1.84-1.84,2.76-3.98,2.76-6.44v-79.78c0-2.46-.92-4.6-2.76-6.44Zm-23.32,6.44v13.81c0,1.33-.44,2.43-1.31,3.3-.86.87-1.96,1.3-3.29,1.3s-2.43-.43-3.3-1.3-1.31-1.97-1.31-3.3v-13.81h9.21Zm-36.82,13.81c0,1.33-.44,2.43-1.31,3.3s-1.97,1.3-3.3,1.3-2.43-.43-3.29-1.3c-.87-.87-1.31-1.97-1.31-3.3v-13.81h9.21v13.81Zm0-24.55c0-3.89,1.33-7.16,3.99-9.82,2.66-2.66,5.92-3.99,9.81-3.99h.01c3.88,0,7.15,1.33,9.81,3.99.43.43.82.87,1.18,1.33,1.87,2.39,2.81,5.22,2.81,8.49v1.53h-27.61v-1.53Z"/>
    <path class="cls-1" d="m144.53,27.31c-1.85-1.84-3.99-2.76-6.45-2.76h-16.88v-1.54c0-6.44-2.22-11.89-6.67-16.34-4.45-4.45-9.9-6.67-16.34-6.67s-11.89,2.22-16.34,6.67-6.67,9.9-6.67,16.34v1.54h-16.88c-2.45,0-4.6.92-6.44,2.76-1.84,1.84-2.77,3.99-2.77,6.44v20.56h.01c3.88,0,7.15,1.33,9.81,3.99.43.43.82.87,1.18,1.33v-24.08h4.09v12.01c0,1.15.12,2.27.36,3.36.61,2.93,2.03,5.59,4.16,7.72.68.68,1.42,1.28,2.2,1.81,2.57,1.76,5.64,2.71,8.88,2.71,4.22,0,8.16-1.61,11.08-4.52,2.92-2.92,4.52-6.86,4.52-11.08v-12.01h5.62v12.01c0,4.22,1.61,8.16,4.53,11.08,2.91,2.91,6.85,4.52,11.07,4.52s8.16-1.61,11.08-4.52c2.92-2.92,4.52-6.86,4.52-11.08v-12.01h4.09v76.19H60.09v-42.09h-11v43.88c0,2.46.93,4.6,2.77,6.45,1.84,1.84,3.99,2.76,6.44,2.76h79.78c2.46,0,4.6-.92,6.45-2.76,1.84-1.85,2.76-3.99,2.76-6.45V33.75c0-2.45-.92-4.6-2.76-6.44Zm-60.15,20.25c0,1.33-.43,2.43-1.3,3.3s-1.97,1.3-3.3,1.3-2.43-.43-3.3-1.3-1.3-1.97-1.3-3.3v-13.81h9.2v13.81Zm0-23.01v-1.54c0-3.89,1.33-7.16,3.99-9.82,2.66-2.66,5.93-3.99,9.82-3.99s7.16,1.33,9.82,3.99c2.66,2.66,3.99,5.93,3.99,9.82v1.54h-27.62Zm36.82,23.01c0,1.33-.43,2.43-1.3,3.3-.87.87-1.97,1.3-3.3,1.3s-2.43-.43-3.3-1.3c-.87-.87-1.3-1.97-1.3-3.3v-13.81h9.2v13.81Z"/>
  </g>
</svg>