<?xml version="1.0" encoding="UTF-8"?>
<svg id="Layer_2" data-name="Layer 2" xmlns="http://www.w3.org/2000/svg" viewBox="0 0 183.56 151.94">
  <defs>
    <style>
      .cls-1 {
        fill: #c33;
      }
    </style>
  </defs>
  <g id="Layer_1-2" data-name="Layer 1">
    <g>
      <path class="cls-1" d="m175.1,29.33l2.37-5.91c.86-2.15-.72-4.49-3.04-4.49H8.14c-2.32,0-3.9,2.34-3.04,4.49l2.37,5.91c.5,1.24,1.7,2.06,3.04,2.06h22.56c1.91,0,3.42,1.64,3.26,3.54h0c-.14,1.7-1.56,3.01-3.26,3.01H7.56c-1.81,0-3.27,1.47-3.27,3.27v5.45c0,1.81,1.47,3.27,3.27,3.27h23.98c1.91,0,3.42,1.64,3.26,3.54l-5.59,67.91c-.16,1.91,1.35,3.54,3.26,3.54h11.11c1.77,0,3.22-1.41,3.27-3.18l1.97-68.64c.05-1.77,1.5-3.18,3.27-3.18h78.36c1.77,0,3.22,1.41,3.27,3.18l1.97,68.64c.05,1.77,1.5,3.18,3.27,3.18h11.11c1.91,0,3.42-1.64,3.26-3.54l-5.59-67.91c-.16-1.91,1.35-3.54,3.26-3.54h23.98c1.81,0,3.27-1.47,3.27-3.27v-5.45c0-1.81-1.47-3.27-3.27-3.27h-25.51c-1.7,0-3.12-1.31-3.26-3.01h0c-.16-1.91,1.35-3.54,3.26-3.54h22.56c1.34,0,2.54-.81,3.04-2.06Zm-122.46,2.06h28.37c1.81,0,3.27,1.47,3.27,3.27h0c0,1.81-1.47,3.27-3.27,3.27h-28.37c-1.85,0-3.33-1.52-3.27-3.37h0c.05-1.77,1.5-3.18,3.27-3.18Zm77.29,6.55h-28.37c-1.81,0-3.27-1.47-3.27-3.27h0c0-1.81,1.47-3.27,3.27-3.27h28.37c1.77,0,3.22,1.41,3.27,3.18h0c.05,1.84-1.43,3.37-3.27,3.37Z"/>
      <path class="cls-1" d="m181.17.04c-9.55,1.91-20.43,3.5-32.34,4.7-17.72,1.79-36.92,2.71-57.05,2.73-20.14-.01-39.33-.93-57.05-2.73C22.82,3.54,11.94,1.95,2.39.04h0C1.01-.24-.22.97.03,2.35h0c.74,4.1,1.8,7.92,3.16,11.33h0c.3.76,1.04,1.26,1.86,1.26h173.46c.82,0,1.55-.5,1.86-1.26h0c1.36-3.42,2.43-7.23,3.16-11.33h0c.25-1.39-.98-2.59-2.36-2.31h0Z"/>
      <path class="cls-1" d="m135.81,131.14l.67,17.83c.06,1.66,1.43,2.97,3.08,2.97h18.66c1.91,0,3.37-1.72,3.04-3.61l-3.06-17.83c-.25-1.48-1.54-2.57-3.04-2.57h-16.28c-1.75,0-3.15,1.45-3.08,3.2Z"/>
      <path class="cls-1" d="m24.33,151.94h18.66c1.66,0,3.02-1.31,3.08-2.97l.67-17.83c.07-1.75-1.33-3.2-3.08-3.2h-16.28c-1.5,0-2.79,1.08-3.04,2.56l-3.06,17.83c-.32,1.89,1.13,3.61,3.04,3.61Z"/>
    </g>
  </g>
</svg>