<?xml version="1.0" encoding="UTF-8"?>
<svg id="Layer_2" data-name="Layer 2" xmlns="http://www.w3.org/2000/svg" viewBox="0 0 101.54 120.57">
  <defs>
    <style>
      .cls-1 {
        fill: #c33;
      }
    </style>
  </defs>
  <g id="Layer_1-2" data-name="Layer 1">
    <path class="cls-1" d="m12.69,120.57h0c0-3.96,1.98-7.67,5.28-9.87l4.24-2.83c-6.24,0-11.5-2.14-15.79-6.43s-6.43-9.55-6.43-15.79V25.38C0,16.61,4.07,10.18,12.22,6.11,20.36,2.04,33.21,0,50.77,0s31.2,1.96,39.03,5.87c7.83,3.91,11.74,10.42,11.74,19.51v60.29c0,6.24-2.14,11.5-6.43,15.79s-9.55,6.43-15.79,6.43l4.24,2.83c3.3,2.2,5.28,5.9,5.28,9.87h0s-76.15,0-76.15,0Zm-3.17-67.43h37.12v-24.59H9.52v24.59Zm46.64,0h35.85v-24.59h-35.85v24.59Zm-28.39,36.49c2.43,0,4.49-.85,6.18-2.55s2.54-3.76,2.54-6.19-.85-4.49-2.55-6.18c-1.7-1.69-3.76-2.54-6.19-2.54s-4.49.85-6.18,2.55-2.54,3.76-2.54,6.19.85,4.49,2.55,6.18c1.7,1.69,3.76,2.54,6.19,2.54Zm46.01,0c2.43,0,4.49-.85,6.18-2.55s2.54-3.76,2.54-6.19-.85-4.49-2.55-6.18c-1.7-1.69-3.76-2.54-6.19-2.54s-4.49.85-6.18,2.55-2.54,3.76-2.54,6.19.85,4.49,2.55,6.18c1.7,1.69,3.76,2.54,6.19,2.54Z"/>
  </g>
</svg>