<?xml version="1.0" encoding="UTF-8"?>
<svg id="Layer_2" data-name="Layer 2" xmlns="http://www.w3.org/2000/svg" viewBox="0 0 232 188.81">
  <defs>
    <style>
      .cls-1 {
        fill: #c33;
      }
    </style>
  </defs>
  <g id="Layer_1-2" data-name="Layer 1">
    <path class="cls-1" d="m175,38.91c-2.8,1.47-5.66,2.2-7.69,2.57-.21.04-.41.05-.63.05h-101.36c-.21,0-.42-.02-.63-.05-2.03-.37-4.9-1.1-7.69-2.57-4.48-2.36-7.24-5.81-6.5-6.23.9-.52,5.34,4.45,12.5,5.9,13.46,2.73,33.96-7.44,43.5-19.68,7.62-9.78,6.69-18.9,9.5-18.9s1.88,9.12,9.5,18.9c9.54,12.24,30.04,22.41,43.5,19.68,7.16-1.45,11.6-6.42,12.5-5.9.74.43-2.02,3.88-6.5,6.23Zm29.5,40.35c-.74-.45-5.75,4.56-12.5,5.9-7.51,1.5-20.15-.95-42.54-18.9-.62-.5-1.4-.78-2.2-.78h-62.54c-.8,0-1.57.28-2.2.78-22.39,17.95-35.02,20.4-42.54,18.9-6.75-1.34-11.76-6.36-12.5-5.9-.7.43,3.48,5.03,10.5,8.2,2.83,1.28,5.54,2.06,7.62,2.54.26.06.52.09.78.09h139.2c.27,0,.52-.03.78-.09,2.08-.48,4.78-1.26,7.62-2.54,7.02-3.17,11.2-7.77,10.5-8.2Zm27,59.63c-2.8,2.22-9.5,7.28-16.74,7.28-16.13,0-29.99-4.93-38.76-9.51-4.79-2.5-11.96-6.83-18.46-13.65-.67-.7-1.59-1.11-2.55-1.11h-77.97c-.97,0-1.88.41-2.55,1.11-6.51,6.81-13.67,11.14-18.46,13.65-8.77,4.58-22.63,9.51-38.76,9.51-7.24,0-13.94-5.06-16.74-7.28l-.5-.26c.83,1.92,3.08,6.09,9,9.84,6.05,3.83,12.66,5.14,15.74,5.62.18.03.35.04.52.04h181.46c.18,0,.35-.01.52-.04,3.08-.47,9.7-1.79,15.74-5.62,5.92-3.75,8.17-7.92,9-9.84l-.5.26Zm-83.5-93.42h-2c-1.93,0-3.5,1.57-3.5,3.5v10.03c0,1.93,1.57,3.5,3.5,3.5h2c1.93,0,3.5-1.57,3.5-3.5v-10.03c0-1.93-1.57-3.5-3.5-3.5Zm12.5,48.55h-5c-1.93,0-3.5,1.57-3.5,3.5v17.6c0,1.93,1.57,3.5,3.5,3.5h5c1.93,0,3.5-1.57,3.5-3.5v-17.6c0-1.93-1.57-3.5-3.5-3.5Zm-29.5,0h0c-1.93,0-3.5,1.57-3.5,3.5v11.7c0,1.93,1.57,3.5,3.5,3.5h0c1.93,0,3.5-1.57,3.5-3.5v-11.7c0-1.93-1.57-3.5-3.5-3.5Zm-3-48.55h-2c-1.93,0-3.5,1.57-3.5,3.5v6.45c0,1.93,1.57,3.5,3.5,3.5h2c1.93,0,3.5-1.57,3.5-3.5v-6.45c0-1.93-1.57-3.5-3.5-3.5Zm8,112.18h-2c-1.93,0-3.5,1.57-3.5,3.5v16.95c0,1.93,1.57,3.5,3.5,3.5h2c1.93,0,3.5-1.57,3.5-3.5v-16.95c0-1.93-1.57-3.5-3.5-3.5Zm46.5,0h-9c-1.93,0-3.5,1.57-3.5,3.5v24.16c0,1.93,1.57,3.5,3.5,3.5h9c1.93,0,3.5-1.57,3.5-3.5v-24.16c0-1.93-1.57-3.5-3.5-3.5ZM86,45.47h-2c-1.93,0-3.5,1.57-3.5,3.5v10.03c0,1.93,1.57,3.5,3.5,3.5h2c1.93,0,3.5-1.57,3.5-3.5v-10.03c0-1.93-1.57-3.5-3.5-3.5Zm-9.5,48.55h-5c-1.93,0-3.5,1.57-3.5,3.5v17.6c0,1.93,1.57,3.5,3.5,3.5h5c1.93,0,3.5-1.57,3.5-3.5v-17.6c0-1.93-1.57-3.5-3.5-3.5Zm24.5,0h0c-1.93,0-3.5,1.57-3.5,3.5v11.7c0,1.93,1.57,3.5,3.5,3.5h0c1.93,0,3.5-1.57,3.5-3.5v-11.7c0-1.93-1.57-3.5-3.5-3.5Zm5-48.55h-2c-1.93,0-3.5,1.57-3.5,3.5v6.45c0,1.93,1.57,3.5,3.5,3.5h2c1.93,0,3.5-1.57,3.5-3.5v-6.45c0-1.93-1.57-3.5-3.5-3.5Zm-8,112.18h-2c-1.93,0-3.5,1.57-3.5,3.5v16.95c0,1.93,1.57,3.5,3.5,3.5h2c1.93,0,3.5-1.57,3.5-3.5v-16.95c0-1.93-1.57-3.5-3.5-3.5Zm-39.5,0h-9c-1.93,0-3.5,1.57-3.5,3.5v24.16c0,1.93,1.57,3.5,3.5,3.5h9c1.93,0,3.5-1.57,3.5-3.5v-24.16c0-1.93-1.57-3.5-3.5-3.5Z"/>
  </g>
</svg>