<?xml version="1.0" encoding="UTF-8"?>
<svg id="Layer_2" data-name="Layer 2" xmlns="http://www.w3.org/2000/svg" viewBox="0 0 184.53 152.48">
  <defs>
    <style>
      .cls-1 {
        fill: #f55;
      }
    </style>
  </defs>
  <g id="Layer_1-2" data-name="Layer 1">
    <g>
      <path class="cls-1" d="m174.76,31.93l4.99-12.46H3.78l4.99,12.46h28.33l-.54,6.55H4.77v12h30.81l-6.17,75h17.84l2.16-75h84.72l2.16,75h17.84l-6.17-75h30.81v-12h-31.8l-.54-6.55h28.33Zm-124.82,0h34.83v6.55h-35.02l.19-6.55Zm83.84,6.55h-35.01v-6.55h34.83l.19,6.55Z"/>
      <path class="cls-1" d="m181.65.58c-9.55,1.91-20.43,3.5-32.34,4.7-17.72,1.79-36.92,2.71-57.05,2.73-20.14-.01-39.33-.93-57.05-2.73C23.31,4.07,12.43,2.49,2.88.58L0,0l.52,2.89c.74,4.1,1.8,7.91,3.16,11.33l.5,1.26h176.17l.5-1.26c1.36-3.42,2.43-7.23,3.16-11.33L184.53,0l-2.88.58Z"/>
      <polygon class="cls-1" points="136.18 128.48 137.08 152.48 162.38 152.48 158.27 128.48 136.18 128.48"/>
      <polygon class="cls-1" points="21.15 152.48 46.45 152.48 47.36 128.48 25.27 128.48 21.15 152.48"/>
    </g>
  </g>
</svg>